<svg version="1.1" id="Layer_1" xmlns="http://www.w3.org/2000/svg" xmlns:xlink="http://www.w3.org/1999/xlink" x="0px" y="0px"
	 width="100%" viewBox="45 20 400 488" enable-background="new 45 0 400 512" xml:space="preserve">
<path fill="#00408D" opacity="1.000000" stroke="none" 
	d="
M469.000000,513.000000 
	C327.976685,513.000000 186.953354,513.000000 45.464821,512.531372 
	C44.999741,341.708466 44.999870,171.354233 45.000000,1.000000 
	C186.023331,1.000000 327.046661,1.000000 468.535156,1.468657 
	C469.000244,172.291550 469.000122,342.645782 469.000000,513.000000 
M420.920502,333.396454 
	C437.828308,299.940704 444.099548,264.538574 440.217987,227.312546 
	C428.777832,117.595230 323.454071,40.811054 215.502228,63.459312 
	C113.741005,84.808784 48.854145,183.300446 69.246933,285.460022 
	C88.458176,381.700531 181.147736,448.030273 277.968231,434.249725 
	C342.312012,425.091614 389.449432,390.804474 420.920502,333.396454 
z"/>
<path fill="#FFFFFF" opacity="1.000000" stroke="none" 
	d="
M44.531342,1.000000 
	C44.999870,171.354233 44.999741,341.708466 44.999809,512.531372 
	C30.344034,513.000000 15.688067,513.000000 1.039550,513.000000 
	C1.047000,342.333313 1.047000,171.666656 1.047000,1.000000 
	C15.416894,1.000000 29.739788,1.000000 44.531342,1.000000 
z"/>
<path fill="#FFFFFF" opacity="1.000000" stroke="none" 
	d="
M469.468658,513.000000 
	C469.000122,342.645782 469.000244,172.291550 469.000183,1.468657 
	C483.655975,1.000000 498.311920,1.000000 512.960449,1.000002 
	C512.952942,171.666672 512.952942,342.333344 512.952942,513.000000 
	C498.583038,513.000000 484.260162,513.000000 469.468658,513.000000 
z"/>
<path fill="#F9BB04" opacity="1.000000" stroke="none" 
	d="
M420.756409,333.729980 
	C389.449432,390.804474 342.312012,425.091614 277.968231,434.249725 
	C181.147736,448.030273 88.458176,381.700531 69.246933,285.460022 
	C48.854145,183.300446 113.741005,84.808784 215.502228,63.459312 
	C323.454071,40.811054 428.777832,117.595230 440.217987,227.312546 
	C444.099548,264.538574 437.828308,299.940704 420.756409,333.729980 
M120.173943,234.902328 
	C120.041985,235.241180 119.910019,235.580032 119.877495,235.906021 
	C119.877495,235.906021 119.852798,235.808838 119.348000,236.072525 
	C119.050987,236.557816 118.753967,237.043091 118.565399,237.739594 
	C118.565399,237.739594 118.516022,237.507339 118.061440,237.872375 
	C117.880630,238.214767 117.699821,238.557159 117.175003,239.075684 
	C116.987747,239.277985 116.907753,239.516281 116.426323,240.103012 
	C116.113770,240.609680 115.801224,241.116348 115.991348,241.895081 
	C115.823860,241.801361 115.656364,241.707642 114.977989,242.101349 
	C114.050262,245.071014 113.122528,248.040680 111.892036,251.714432 
	C105.298065,273.857697 98.700432,295.999878 92.122818,318.148010 
	C91.844574,319.084930 91.295601,320.301910 91.643684,321.008759 
	C95.231628,328.294464 98.978600,335.501831 103.293892,343.927094 
	C108.028442,326.991241 112.301376,311.792053 116.525185,296.579193 
	C124.349884,268.397125 132.145844,240.207047 140.309235,211.360229 
	C141.328232,207.752686 142.347229,204.145142 143.366211,200.537598 
	C142.939255,200.402908 142.512299,200.268234 142.085342,200.133560 
	C140.584610,202.839111 139.083893,205.544678 137.332870,208.342621 
	C137.332870,208.342621 137.319687,208.609100 136.988480,208.961761 
	C136.813919,209.245010 136.726700,209.552994 136.831284,209.875427 
	C136.831284,209.875427 136.804871,209.773834 136.295578,210.090393 
	C136.043900,210.633774 135.792221,211.177139 135.657867,211.760956 
	C135.657867,211.760956 135.591660,211.655991 135.158279,211.958679 
	C134.914291,212.426575 134.670303,212.894455 134.275848,213.440720 
	C134.275848,213.440720 134.286087,213.610077 133.909149,214.052002 
	C133.438538,214.896332 132.967941,215.740677 132.673843,216.972931 
	C132.673843,216.972931 132.528870,216.572357 132.113159,216.911713 
	C132.004425,217.248550 131.895691,217.585388 131.883011,217.907455 
	C131.883011,217.907455 131.856888,217.813843 131.346451,218.130173 
	C131.087494,218.670670 130.828537,219.211166 130.659317,219.759354 
	C130.659317,219.759354 130.634674,219.672729 130.182022,219.950546 
	C129.930496,220.417679 129.678970,220.884811 129.263535,221.435715 
	C129.263535,221.435715 129.278366,221.619202 128.945679,221.938919 
	C128.753036,222.193848 128.652145,222.481018 128.735794,222.802536 
	C128.735794,222.802536 128.712357,222.712708 128.236572,222.991180 
	C127.969749,223.472321 127.702919,223.953461 127.357941,224.490265 
	C127.357941,224.490265 127.353088,224.586105 126.999962,224.917252 
	C126.802170,225.184937 126.689270,225.484589 126.756950,225.818665 
	C126.756950,225.818665 126.735855,225.725296 126.251678,225.991638 
	C125.980240,226.472214 125.708809,226.952789 125.358444,227.488480 
	C125.358444,227.488480 125.352722,227.584579 124.995979,227.913788 
	C124.795250,228.181076 124.682587,228.481400 124.754166,228.816269 
	C124.754166,228.816269 124.731857,228.722687 124.251228,228.984818 
	C123.979378,229.459579 123.707527,229.934357 123.335075,230.471222 
	C123.335075,230.471222 123.334129,230.589447 122.983139,230.911057 
	C122.780365,231.168716 122.663841,231.460785 122.723915,231.791824 
	C122.723915,231.791824 122.701668,231.704147 122.239159,231.940872 
	C121.972549,232.386017 121.705940,232.831146 121.212570,233.390533 
	C121.212570,233.390533 121.215736,233.644424 120.894318,233.913544 
	C120.693413,234.126663 120.583534,234.379349 120.652336,234.695999 
	C120.652336,234.695999 120.639359,234.605942 120.173943,234.902328 
M123.988083,369.015015 
	C123.988083,369.015015 123.846504,369.018127 124.022186,369.575012 
	C124.335609,369.791168 124.649025,370.007294 124.960266,370.044250 
	C124.960266,370.044250 124.781219,370.051117 124.977821,370.610443 
	C125.299225,370.825287 125.620621,371.040161 125.942932,371.059235 
	C125.942932,371.059235 125.747208,371.064728 125.961815,371.623169 
	C126.286369,371.839844 126.610916,372.056488 126.934967,372.067627 
	C126.934967,372.067627 126.729607,372.075470 126.951256,372.632965 
	C127.279968,372.846436 127.608681,373.059906 127.936188,373.066803 
	C127.936188,373.066803 127.729774,373.075226 127.951195,373.633301 
	C128.279800,373.847961 128.608414,374.062592 128.933426,374.070221 
	C128.933426,374.070221 128.726685,374.081421 128.947906,374.637848 
	C129.277924,374.848633 129.607941,375.059418 129.934952,375.068420 
	C129.934952,375.068420 129.733429,375.078796 129.956177,375.631622 
	C130.287964,375.833099 130.619751,376.034546 130.953369,376.045624 
	C130.953369,376.045624 130.763046,376.048950 130.988693,376.594757 
	C131.318893,376.792786 131.649094,376.990814 131.976120,377.024384 
	C131.976120,377.024384 131.811722,377.030243 132.016190,377.573059 
	C132.339630,377.769196 132.663071,377.965332 132.962997,378.053284 
	C132.962997,378.053284 132.856003,378.081696 133.051590,378.588531 
	C133.476212,378.927765 133.900848,379.266998 134.399231,379.818542 
	C134.399231,379.818542 134.623932,379.823029 134.728409,380.031586 
	C134.728409,380.031586 134.961655,380.029968 135.268311,380.625153 
	C137.705933,382.717010 140.143539,384.808868 143.218765,387.447906 
	C143.860611,378.760712 144.428604,371.073212 145.048386,362.684692 
	C135.684769,362.684692 126.902863,362.684692 116.927010,362.684692 
	C119.009651,364.500031 120.477394,365.779419 122.105591,367.549530 
	C122.384895,367.733978 122.664200,367.918427 122.967094,368.025055 
	C122.967094,368.025055 122.888397,368.004578 123.068314,368.542572 
	C123.375435,368.747253 123.682564,368.951935 123.988083,369.015015 
M286.120972,273.846069 
	C286.120972,273.846069 286.202240,273.819031 285.877045,273.318909 
	C285.334259,273.076599 284.791443,272.834259 284.196014,272.723083 
	C284.196014,272.723083 284.307800,272.636658 284.011749,272.180389 
	C283.526367,271.936218 283.040955,271.692078 282.499268,271.358063 
	C282.499268,271.358063 282.393341,271.353546 281.986725,270.938202 
	C280.979462,270.362091 279.972198,269.785950 278.683319,268.939667 
	C278.683319,268.939667 278.296234,268.890137 277.894318,268.341339 
	C276.209961,267.278320 274.525604,266.215332 271.926758,264.575195 
	C280.294098,289.283020 288.254028,312.787720 296.336884,336.723541 
	C296.336884,336.723541 296.768707,336.843872 297.147247,337.094513 
	C297.147247,337.094513 297.598511,337.143158 297.598511,337.143158 
	C297.598511,337.143158 298.012024,336.956116 298.937469,337.045715 
	C303.495850,337.045715 308.054230,337.045715 313.201599,337.045715 
	C309.124817,325.639404 305.440643,315.331696 301.672394,304.297974 
	C298.981323,296.667999 296.351501,289.015411 293.553528,281.424835 
	C292.902710,279.659180 291.679657,278.104431 290.613403,276.249207 
	C290.613403,276.249207 290.384155,276.261963 289.971344,275.865356 
	C289.140656,275.405548 288.309937,274.945770 287.420471,274.513367 
	C287.420471,274.513367 287.405029,274.450378 287.075073,274.057983 
	C286.752960,273.959106 286.430817,273.860199 286.120972,273.846069 
M185.969559,370.864746 
	C186.337112,370.952850 186.704666,371.040955 187.230209,371.912262 
	C187.954453,384.335510 188.513702,396.772675 189.561966,409.168518 
	C189.741028,411.285858 191.645950,414.561707 193.373642,415.033936 
	C205.487717,418.345306 217.764526,421.061218 230.761902,424.236267 
	C248.253571,426.535126 265.691101,426.512085 283.866058,423.052856 
	C288.730347,422.024902 293.651306,421.210052 298.449615,419.934021 
	C326.660583,412.431549 351.765045,399.213470 373.537354,378.883972 
	C373.725098,378.602081 373.912842,378.320190 374.557556,377.921997 
	C374.863861,377.762421 375.033051,377.510651 375.592499,376.977295 
	C375.807373,376.680450 376.022217,376.383606 376.664703,375.980408 
	C376.940369,375.812439 377.082306,375.567108 377.683441,374.964966 
	C378.502136,373.989716 379.320862,373.014465 380.520233,371.679626 
	C379.713898,371.587799 378.907593,371.495972 377.171997,371.193451 
	C361.035797,370.619354 344.900269,370.026184 328.763275,369.475311 
	C298.491241,368.441803 268.218384,367.432770 237.507828,366.235260 
	C237.507828,366.235260 237.053421,366.366272 236.127792,366.168427 
	C216.045563,365.776886 195.962509,365.421234 175.881760,364.964691 
	C171.664764,364.868835 167.456192,364.401978 162.654175,364.679657 
	C162.495850,376.214325 162.322876,387.748901 162.225388,399.284088 
	C162.220840,399.822327 162.890228,400.366302 163.817017,401.280426 
	C166.029297,402.585632 168.241592,403.890808 171.192657,405.631866 
	C171.192657,391.878967 171.192657,379.082581 171.192657,366.170044 
	C174.323898,367.039581 176.991043,367.780212 179.749908,368.494476 
	C179.749908,368.494476 179.669022,368.443817 180.224930,368.875000 
	C182.019135,369.450989 183.813324,370.026978 185.659912,370.498810 
	C185.659912,370.498810 185.543900,370.486694 185.969559,370.864746 
M163.938644,341.410431 
	C166.248215,340.935974 168.557785,340.461517 171.003983,339.060150 
	C170.956635,329.376007 170.909286,319.691864 170.952469,309.229401 
	C168.548920,308.844543 166.145355,308.459686 163.014343,308.563202 
	C162.679535,309.618988 162.064240,310.672150 162.054260,311.731018 
	C161.973846,320.268250 161.961182,328.807068 162.058456,337.343933 
	C162.072205,338.550049 162.791672,339.748077 163.938644,341.410431 
M75.853081,247.504623 
	C76.223549,255.397354 76.594025,263.290100 76.964493,271.182831 
	C77.439323,271.365601 77.914154,271.548370 78.388985,271.731140 
	C82.702003,267.684845 87.248878,263.858093 91.288818,259.555389 
	C112.162239,237.324158 128.385193,211.729568 144.443680,185.992249 
	C148.387360,179.671646 150.795914,173.388367 149.747070,165.907227 
	C149.562531,164.590927 149.919144,162.938797 150.621811,161.814072 
	C151.946671,159.693466 153.705231,157.843826 155.283508,155.881546 
	C155.027054,155.629395 154.770615,155.377258 154.514160,155.125107 
	C157.379272,154.452667 160.244370,153.780212 163.773438,152.951920 
	C163.773438,157.412155 163.773438,161.312805 163.773438,165.134232 
	C170.945084,165.878418 170.958832,165.868271 170.980652,159.627029 
	C170.987259,157.738815 170.981689,155.850586 170.981689,153.552704 
	C174.468140,154.397720 177.173615,155.053452 180.304108,155.812195 
	C180.304108,160.624039 180.539154,165.126083 180.241638,169.592651 
	C179.907516,174.608932 181.424545,178.600266 185.127686,182.009048 
	C200.188202,195.872345 214.392670,210.791565 230.326614,223.556641 
	C280.332275,263.617462 336.898956,291.960022 396.777283,314.037506 
	C402.958496,316.316559 409.197937,318.437683 415.343475,320.608490 
	C441.011993,265.767822 437.671875,188.396881 387.274048,130.748398 
	C338.740509,75.232422 261.051514,55.279346 191.994263,80.820770 
	C122.499847,106.523888 76.485016,172.170868 75.853081,247.504623 
M229.014084,283.490997 
	C222.888428,262.753204 216.790131,242.007233 210.589417,221.291901 
	C210.044800,219.472519 209.182571,217.493301 207.865784,216.202530 
	C200.855072,209.330444 193.652435,202.654129 187.044739,196.409531 
	C187.042374,196.384583 186.972122,197.661270 187.302155,198.824371 
	C191.834885,214.799332 196.491272,230.739410 200.982224,246.725983 
	C209.125549,275.713989 217.122162,304.743469 225.384415,333.697327 
	C225.992279,335.827515 228.042480,338.853333 229.770294,339.108887 
	C234.732620,339.842865 239.873779,339.367645 245.616592,339.367645 
	C239.924042,320.250092 234.567993,302.262634 229.014084,283.490997 
M138.038025,294.570618 
	C141.785110,279.084473 146.995590,263.772705 148.867889,248.063126 
	C150.741592,232.341690 149.279297,216.222687 149.279297,199.966095 
	C148.882584,200.973907 148.518188,201.703598 148.302826,202.474884 
	C136.276367,245.546432 124.258751,288.620422 112.249359,331.696716 
	C108.956017,343.509583 108.966835,343.366119 121.319954,343.184387 
	C124.703979,343.134583 125.778595,341.852081 126.541061,338.816589 
	C130.186523,324.303680 134.074692,309.851715 138.038025,294.570618 
M204.990875,338.772034 
	C210.268921,339.299194 215.546951,339.826385 221.609573,340.431915 
	C208.282181,292.778442 195.349960,246.537903 182.417725,200.297363 
	C181.939774,200.362488 181.461823,200.427628 180.983871,200.492752 
	C180.983871,202.386063 180.919968,204.281860 180.994125,206.172272 
	C181.514938,219.446060 182.040649,232.719772 182.620285,245.991089 
	C182.772186,249.469391 182.604584,253.071579 183.458481,256.391907 
	C190.455688,283.600433 197.659851,310.755737 204.990875,338.772034 
M239.539719,299.946136 
	C243.359268,312.836853 247.178818,325.727600 251.050491,338.794281 
	C256.682281,338.545990 261.938141,338.314301 267.584076,338.065399 
	C267.047241,336.184479 266.670990,334.760437 266.235138,333.354919 
	C257.418213,304.920166 248.188400,276.604126 239.973404,247.996643 
	C236.721481,236.672287 227.451370,232.908127 219.784409,226.829895 
	C219.250885,227.108139 218.717361,227.386383 218.183823,227.664627 
	C225.209518,251.505096 232.235214,275.345551 239.539719,299.946136 
M261.531555,299.958191 
	C265.471191,312.596375 269.410858,325.234589 273.207123,337.412750 
	C279.265656,337.412750 284.691071,337.412750 290.364471,337.412750 
	C290.176971,336.237762 290.162994,335.586731 289.966064,334.996826 
	C281.865204,310.733398 273.760559,286.471252 265.594818,262.229645 
	C265.194489,261.041168 264.483337,259.695526 263.505707,259.007111 
	C258.319702,255.355377 253.002151,251.890411 247.730164,248.360764 
	C247.154572,248.731018 246.578995,249.101273 246.003403,249.471527 
	C251.085007,266.051361 256.166595,282.631195 261.531555,299.958191 
M326.233978,307.240173 
	C323.123871,301.835297 323.870148,294.333649 316.848297,291.010712 
	C311.152161,288.315186 305.727905,285.045105 299.270264,281.533447 
	C305.709473,299.740234 311.712830,316.824554 317.868866,333.853668 
	C318.246277,334.897705 319.800354,336.157715 320.857910,336.206177 
	C326.119446,336.447388 331.398071,336.316315 337.391083,336.316315 
	C333.528015,326.194794 330.044403,317.067474 326.233978,307.240173 
M203.503510,351.749390 
	C197.915970,351.749390 192.328445,351.749390 186.740906,351.749390 
	C186.737137,352.388428 186.733353,353.027435 186.729568,353.666473 
	C188.043076,353.793182 189.356033,354.021973 190.670197,354.029144 
	C196.667282,354.061920 202.666733,353.927032 208.661713,354.041718 
	C268.791718,355.192230 328.921631,356.349579 389.048889,357.632111 
	C392.702911,357.710083 395.025665,356.861938 396.381287,351.750641 
	C332.042755,351.750641 268.272552,351.750641 203.503510,351.749390 
M340.954926,330.527405 
	C342.395935,332.214386 343.678375,335.148926 345.307526,335.355957 
	C350.323730,335.993530 355.472412,335.588379 361.364258,335.588379 
	C357.330994,325.978943 353.767822,317.443970 350.142609,308.935394 
	C349.841461,308.228638 349.242310,307.455933 348.577301,307.126953 
	C342.142456,303.943542 335.663818,300.848541 328.191498,297.242767 
	C332.652863,308.848541 336.679382,319.323029 340.954926,330.527405 
M85.177208,305.251434 
	C86.025467,307.462219 86.873726,309.673004 88.140862,312.975494 
	C93.480186,294.767059 98.449913,277.819031 103.419632,260.871033 
	C102.953911,260.624756 102.488190,260.378479 102.022461,260.132202 
	C100.958710,260.688049 99.700180,261.038422 98.862259,261.832550 
	C92.593452,267.773895 86.347061,273.742767 80.269279,279.877045 
	C79.467339,280.686432 79.175713,282.598633 79.470009,283.798370 
	C81.169800,290.727661 83.116615,297.596344 85.177208,305.251434 
M137.475983,317.967316 
	C135.350357,326.122681 133.224731,334.278076 130.984070,342.874786 
	C136.267075,342.624969 141.030212,342.399750 146.367523,342.147339 
	C146.984451,325.092102 147.635696,308.337006 148.112595,291.576935 
	C148.151520,290.209015 147.000305,288.807190 146.402100,287.421143 
	C146.059586,287.545471 145.717056,287.669830 145.374527,287.794159 
	C142.825623,297.590729 140.276718,307.387299 137.475983,317.967316 
M183.018997,283.816711 
	C183.346085,285.741913 183.884430,287.658295 183.965454,289.593811 
	C184.439117,300.904816 184.772018,312.221710 185.222488,323.533813 
	C185.451141,329.275696 185.826584,335.011749 186.112320,340.316895 
	C190.980118,340.316895 195.211151,340.316895 199.817505,340.316895 
	C194.835571,321.232269 190.030777,302.764771 185.127121,284.323608 
	C184.972122,283.740662 183.799103,283.428406 183.018997,283.816711 
M369.947266,334.781677 
	C374.856934,334.781677 379.766602,334.781677 385.378479,334.781677 
	C383.973785,331.635345 383.193726,329.638306 382.210602,327.746765 
	C380.858337,325.144989 379.978851,321.474945 377.794434,320.283173 
	C371.362549,316.774109 364.387268,314.261108 356.920380,311.055878 
	C360.139191,318.740051 362.932343,325.633301 365.967621,332.418213 
	C366.438171,333.470062 368.016785,334.026154 369.947266,334.781677 
M170.985962,284.568665 
	C170.985962,282.133423 170.985962,279.698181 170.985962,277.318115 
	C163.007828,276.636047 163.007706,276.636047 163.006378,283.987274 
	C163.005920,286.472839 163.005447,288.958405 163.006470,291.443970 
	C163.009354,298.440216 163.487961,298.809113 170.985977,297.343628 
	C170.985977,293.446838 170.985977,289.495331 170.985962,284.568665 
M163.532425,263.045715 
	C163.431396,269.875275 168.087753,265.600311 170.723831,266.620850 
	C170.723831,259.575592 170.723831,253.042053 170.723831,246.492203 
	C168.228882,246.492203 166.032394,246.492203 163.532715,246.492203 
	C163.532715,251.915604 163.532715,257.022064 163.532425,263.045715 
M393.078400,333.989624 
	C398.444550,333.989624 403.810699,333.989624 409.176849,333.989624 
	C409.204346,333.459595 409.231812,332.929565 409.259308,332.399506 
	C401.846161,329.565430 394.433014,326.731323 386.104401,323.547241 
	C388.032074,327.529541 389.438171,330.501160 390.932709,333.427582 
	C391.098816,333.752869 391.768677,333.820862 393.078400,333.989624 
M171.006409,213.199677 
	C171.006409,210.258377 171.006409,207.317093 171.006409,204.267975 
	C168.311127,204.267975 166.102432,204.267975 163.881744,204.267975 
	C163.881744,207.929001 163.881744,211.290115 163.881744,215.251007 
	C166.485992,214.824921 168.672424,214.467194 171.006409,213.199677 
M170.993698,231.442810 
	C170.993698,229.380569 170.993698,227.318329 170.993698,225.325516 
	C168.159164,225.325516 166.072662,225.325516 163.851715,225.325516 
	C163.851715,228.937149 163.851715,232.291367 163.851715,236.252701 
	C166.605499,234.902145 171.276382,238.835648 170.993698,231.442810 
M167.593903,193.857056 
	C173.764069,194.028030 169.965576,189.719925 171.059326,187.259384 
	C168.292526,187.259384 166.080063,187.259384 163.228912,187.259384 
	C164.697754,189.713364 160.852890,193.978943 167.593903,193.857056 
z"/>
<path fill="#01408D" opacity="1.000000" stroke="none" 
	d="
M75.853317,247.008652 
	C76.485016,172.170868 122.499847,106.523888 191.994263,80.820770 
	C261.051514,55.279346 338.740509,75.232422 387.274048,130.748398 
	C437.671875,188.396881 441.011993,265.767822 415.343475,320.608490 
	C409.197937,318.437683 402.958496,316.316559 396.777283,314.037506 
	C336.898956,291.960022 280.332275,263.617462 230.326614,223.556641 
	C214.392670,210.791565 200.188202,195.872345 185.127686,182.009048 
	C181.424545,178.600266 179.907516,174.608932 180.241638,169.592651 
	C180.539154,165.126083 180.304108,160.624039 180.304108,155.812195 
	C177.173615,155.053452 174.468140,154.397720 170.981689,153.552704 
	C170.981689,155.850586 170.987259,157.738815 170.980652,159.627029 
	C170.958832,165.868271 170.945084,165.878418 163.773438,165.134232 
	C163.773438,161.312805 163.773438,157.412155 163.773438,152.951920 
	C160.244370,153.780212 157.379272,154.452667 154.514160,155.125107 
	C154.770615,155.377258 155.027054,155.629395 155.283508,155.881546 
	C153.705231,157.843826 151.946671,159.693466 150.621811,161.814072 
	C149.919144,162.938797 149.562531,164.590927 149.747070,165.907227 
	C150.795914,173.388367 148.387360,179.671646 144.443680,185.992249 
	C128.385193,211.729568 112.162239,237.324158 91.288818,259.555389 
	C87.248878,263.858093 82.702003,267.684845 78.388985,271.731140 
	C77.914154,271.548370 77.439323,271.365601 76.964493,271.182831 
	C76.594025,263.290100 76.223549,255.397354 75.853317,247.008652 
z"/>
<path fill="#02408D" opacity="1.000000" stroke="none" 
	d="
M229.989304,423.967529 
	C217.764526,421.061218 205.487717,418.345306 193.373642,415.033936 
	C191.645950,414.561707 189.741028,411.285858 189.561966,409.168518 
	C188.513702,396.772675 187.954453,384.335510 186.936234,371.330200 
	C186.276138,370.660980 185.910019,370.573822 185.543900,370.486694 
	C185.543900,370.486694 185.659912,370.498810 185.512772,370.202393 
	C183.466766,369.418610 181.567886,368.931213 179.669022,368.443817 
	C179.669022,368.443817 179.749908,368.494476 179.657104,368.209229 
	C180.247818,367.284424 180.946991,366.075256 181.612457,366.093536 
	C188.242340,366.275635 194.864166,366.727417 201.493027,366.974915 
	C220.401993,367.680939 239.313217,368.327209 258.223541,368.996735 
	C276.967529,369.660370 295.709290,370.395844 314.456177,370.964172 
	C329.400299,371.417236 344.352264,371.609436 359.297302,372.037720 
	C364.263947,372.180023 369.232239,372.584900 374.170776,373.131531 
	C375.209259,373.246490 376.120575,374.510071 377.090485,375.244415 
	C377.082306,375.567108 376.940369,375.812439 376.214233,376.164734 
	C375.530853,376.621582 375.298004,376.894165 375.065155,377.166748 
	C375.033051,377.510651 374.863861,377.762421 374.124023,377.989258 
	C373.473633,378.383179 373.256775,378.709808 373.039948,379.036438 
	C351.765045,399.213470 326.660583,412.431549 298.449615,419.934021 
	C293.651306,421.210052 288.730347,422.024902 283.146545,422.819702 
	C282.114441,422.477478 281.784546,422.238953 281.491699,422.277985 
	C265.622772,424.393677 249.734085,424.979126 233.788086,423.136444 
	C232.570099,422.995728 231.257767,423.671356 229.989304,423.967529 
z"/>
<path fill="#053F8E" opacity="1.000000" stroke="none" 
	d="
M229.113007,283.883087 
	C234.567993,302.262634 239.924042,320.250092 245.616592,339.367645 
	C239.873779,339.367645 234.732620,339.842865 229.770294,339.108887 
	C228.042480,338.853333 225.992279,335.827515 225.384415,333.697327 
	C217.122162,304.743469 209.125549,275.713989 200.982224,246.725983 
	C196.491272,230.739410 191.834885,214.799332 187.302155,198.824371 
	C186.972122,197.661270 187.042374,196.384583 187.044739,196.409531 
	C193.652435,202.654129 200.855072,209.330444 207.865784,216.202530 
	C209.182571,217.493301 210.044800,219.472519 210.589417,221.291901 
	C216.790131,242.007233 222.888428,262.753204 229.113007,283.883087 
z"/>
<path fill="#053F8E" opacity="1.000000" stroke="none" 
	d="
M139.953781,212.020294 
	C132.145844,240.207047 124.349884,268.397125 116.525185,296.579193 
	C112.301376,311.792053 108.028442,326.991241 103.293892,343.927094 
	C98.978600,335.501831 95.231628,328.294464 91.643684,321.008759 
	C91.295601,320.301910 91.844574,319.084930 92.122818,318.148010 
	C98.700432,295.999878 105.298065,273.857697 112.364380,251.236526 
	C113.720779,247.710388 114.604836,244.662155 115.488876,241.613922 
	C115.656364,241.707642 115.823860,241.801361 116.045517,241.661804 
	C116.378128,240.882538 116.656563,240.336548 116.934998,239.790573 
	C116.907753,239.516281 116.987747,239.277985 117.607727,238.832611 
	C118.198982,238.228790 118.357498,237.868073 118.516022,237.507339 
	C118.516022,237.507339 118.565399,237.739594 118.813629,237.564087 
	C119.325508,236.862015 119.589149,236.335419 119.852798,235.808838 
	C119.852798,235.808838 119.877495,235.906021 120.048668,235.750519 
	C120.359680,235.265335 120.499512,234.935638 120.639359,234.605942 
	C120.639359,234.605942 120.652336,234.695999 120.823898,234.594910 
	C121.256866,234.259476 121.330284,233.976334 121.215736,233.644424 
	C121.215736,233.644424 121.212570,233.390533 121.621307,233.308121 
	C122.253914,232.718521 122.477783,232.211334 122.701660,231.704147 
	C122.701668,231.704147 122.723915,231.791824 122.899323,231.661804 
	C123.161194,231.217682 123.247658,230.903564 123.334122,230.589447 
	C123.334129,230.589447 123.335075,230.471222 123.686539,230.387909 
	C124.269287,229.777298 124.500572,229.250000 124.731857,228.722687 
	C124.731857,228.722687 124.754166,228.816269 124.925049,228.679321 
	C125.181534,228.223114 125.267128,227.903839 125.352722,227.584579 
	C125.352722,227.584579 125.358444,227.488480 125.699341,227.403442 
	C126.272118,226.787369 126.503990,226.256332 126.735855,225.725296 
	C126.735855,225.725296 126.756950,225.818665 126.927628,225.680939 
	C127.183243,225.224167 127.268166,224.905136 127.353088,224.586105 
	C127.353088,224.586105 127.357941,224.490265 127.698868,224.403564 
	C128.263992,223.782150 128.488174,223.247421 128.712357,222.712708 
	C128.712357,222.712708 128.735794,222.802536 128.902008,222.673309 
	C129.313263,222.275558 129.383301,221.967270 129.278366,221.619202 
	C129.278366,221.619202 129.263535,221.435715 129.645233,221.348022 
	C130.229507,220.731125 130.432098,220.201935 130.634674,219.672729 
	C130.634674,219.672729 130.659317,219.759354 130.903015,219.624329 
	C131.383423,218.930817 131.620163,218.372330 131.856888,217.813843 
	C131.856888,217.813843 131.883011,217.907455 132.047119,217.745880 
	C132.317108,217.246979 132.422989,216.909668 132.528870,216.572357 
	C132.528870,216.572357 132.673843,216.972931 132.938843,216.726669 
	C133.564606,215.523636 133.925354,214.566864 134.286087,213.610077 
	C134.286087,213.610077 134.275848,213.440720 134.650940,213.351318 
	C135.214584,212.726624 135.403122,212.191299 135.591660,211.655991 
	C135.591660,211.655991 135.657867,211.760956 135.891800,211.614197 
	C136.352112,210.902908 136.578491,210.338364 136.804871,209.773834 
	C136.804871,209.773834 136.831284,209.875427 136.981842,209.725204 
	C137.194824,209.253021 137.257263,208.931061 137.319702,208.609100 
	C137.319687,208.609100 137.332870,208.342621 137.701019,208.583145 
	C138.697372,209.889221 139.325577,210.954758 139.953781,212.020294 
z"/>
<path fill="#07408E" opacity="1.000000" stroke="none" 
	d="
M137.957306,294.974365 
	C134.074692,309.851715 130.186523,324.303680 126.541061,338.816589 
	C125.778595,341.852081 124.703979,343.134583 121.319954,343.184387 
	C108.966835,343.366119 108.956017,343.509583 112.249359,331.696716 
	C124.258751,288.620422 136.276367,245.546432 148.302826,202.474884 
	C148.518188,201.703598 148.882584,200.973907 149.279297,199.966095 
	C149.279297,216.222687 150.741592,232.341690 148.867889,248.063126 
	C146.995590,263.772705 141.785110,279.084473 137.957306,294.974365 
z"/>
<path fill="#063F8E" opacity="1.000000" stroke="none" 
	d="
M204.896027,338.349609 
	C197.659851,310.755737 190.455688,283.600433 183.458481,256.391907 
	C182.604584,253.071579 182.772186,249.469391 182.620285,245.991089 
	C182.040649,232.719772 181.514938,219.446060 180.994125,206.172272 
	C180.919968,204.281860 180.983871,202.386063 180.983871,200.492752 
	C181.461823,200.427628 181.939774,200.362488 182.417725,200.297363 
	C195.349960,246.537903 208.282181,292.778442 221.609573,340.431915 
	C215.546951,339.826385 210.268921,339.299194 204.896027,338.349609 
z"/>
<path fill="#063F8E" opacity="1.000000" stroke="none" 
	d="
M239.400299,299.566071 
	C232.235214,275.345551 225.209518,251.505096 218.183823,227.664627 
	C218.717361,227.386383 219.250885,227.108139 219.784409,226.829895 
	C227.451370,232.908127 236.721481,236.672287 239.973404,247.996643 
	C248.188400,276.604126 257.418213,304.920166 266.235138,333.354919 
	C266.670990,334.760437 267.047241,336.184479 267.584076,338.065399 
	C261.938141,338.314301 256.682281,338.545990 251.050491,338.794281 
	C247.178818,325.727600 243.359268,312.836853 239.400299,299.566071 
z"/>
<path fill="#053F8E" opacity="1.000000" stroke="none" 
	d="
M261.389893,299.584595 
	C256.166595,282.631195 251.085007,266.051361 246.003403,249.471527 
	C246.578995,249.101273 247.154572,248.731018 247.730164,248.360764 
	C253.002151,251.890411 258.319702,255.355377 263.505707,259.007111 
	C264.483337,259.695526 265.194489,261.041168 265.594818,262.229645 
	C273.760559,286.471252 281.865204,310.733398 289.966064,334.996826 
	C290.162994,335.586731 290.176971,336.237762 290.364471,337.412750 
	C284.691071,337.412750 279.265656,337.412750 273.207123,337.412750 
	C269.410858,325.234589 265.471191,312.596375 261.389893,299.584595 
z"/>
<path fill="#04408D" opacity="1.000000" stroke="none" 
	d="
M301.756500,305.023956 
	C305.440643,315.331696 309.124817,325.639404 313.201599,337.045715 
	C308.054230,337.045715 303.495850,337.045715 298.283081,336.884583 
	C297.322083,336.620880 297.035431,336.661041 296.768707,336.843872 
	C296.768707,336.843872 296.336884,336.723541 296.430817,336.127686 
	C296.400726,334.399628 296.473297,333.202423 296.123352,332.145020 
	C290.280670,314.491364 284.380981,296.856628 278.505157,279.213959 
	C277.380707,275.837708 276.304138,272.445526 275.150116,268.890137 
	C276.654541,268.890137 277.475403,268.890137 278.296234,268.890137 
	C278.296234,268.890137 278.683319,268.939667 278.911316,269.404053 
	C280.223999,270.363464 281.308685,270.858490 282.393341,271.353546 
	C282.393341,271.353546 282.499268,271.358063 282.593933,271.701294 
	C283.228333,272.241882 283.768066,272.439270 284.307800,272.636658 
	C284.307800,272.636658 284.196014,272.723083 284.357513,272.942047 
	C285.080078,273.380341 285.641174,273.599701 286.202240,273.819031 
	C286.202240,273.819031 286.120972,273.846069 286.272461,274.012543 
	C286.750946,274.269470 287.078003,274.359924 287.405029,274.450378 
	C287.405029,274.450378 287.420471,274.513367 287.488922,274.849854 
	C288.499634,275.544891 289.441895,275.903442 290.384155,276.261963 
	C290.384155,276.261963 290.613403,276.249207 290.621033,276.725891 
	C293.308105,284.860382 295.912506,292.545837 298.723083,300.155212 
	C299.371979,301.911926 300.726624,303.407959 301.756500,305.023956 
z"/>
<path fill="#063F8E" opacity="1.000000" stroke="none" 
	d="
M326.397400,307.590179 
	C330.044403,317.067474 333.528015,326.194794 337.391083,336.316315 
	C331.398071,336.316315 326.119446,336.447388 320.857910,336.206177 
	C319.800354,336.157715 318.246277,334.897705 317.868866,333.853668 
	C311.712830,316.824554 305.709473,299.740234 299.270264,281.533447 
	C305.727905,285.045105 311.152161,288.315186 316.848297,291.010712 
	C323.870148,294.333649 323.123871,301.835297 326.397400,307.590179 
z"/>
<path fill="#143B92" opacity="1.000000" stroke="none" 
	d="
M204.002930,351.750000 
	C268.272552,351.750641 332.042755,351.750641 396.381287,351.750641 
	C395.025665,356.861938 392.702911,357.710083 389.048889,357.632111 
	C328.921631,356.349579 268.791718,355.192230 208.661713,354.041718 
	C202.666733,353.927032 196.667282,354.061920 190.670197,354.029144 
	C189.356033,354.021973 188.043076,353.793182 186.729568,353.666473 
	C186.733353,353.027435 186.737137,352.388428 186.740906,351.749390 
	C192.328445,351.749390 197.915970,351.749390 204.002930,351.750000 
z"/>
<path fill="#033B92" opacity="1.000000" stroke="none" 
	d="
M377.386963,375.104675 
	C376.120575,374.510071 375.209259,373.246490 374.170776,373.131531 
	C369.232239,372.584900 364.263947,372.180023 359.297302,372.037720 
	C344.352264,371.609436 329.400299,371.417236 314.456177,370.964172 
	C295.709290,370.395844 276.967529,369.660370 258.223541,368.996735 
	C239.313217,368.327209 220.401993,367.680939 201.493027,366.974915 
	C194.864166,366.727417 188.242340,366.275635 181.612457,366.093536 
	C180.946991,366.075256 180.247818,367.284424 179.611237,368.222412 
	C176.991043,367.780212 174.323898,367.039581 171.192657,366.170044 
	C171.192657,379.082581 171.192657,391.878967 171.192657,405.631866 
	C168.241592,403.890808 166.029297,402.585632 163.581909,400.634705 
	C163.312439,388.028046 163.278091,376.067047 163.243744,364.106079 
	C167.456192,364.401978 171.664764,364.868835 175.881760,364.964691 
	C195.962509,365.421234 216.045563,365.776886 236.687790,366.349792 
	C237.247787,366.531189 237.612091,366.584839 237.612091,366.584839 
	C237.612091,366.584839 237.945847,366.413544 237.945847,366.413574 
	C268.218384,367.432770 298.491241,368.441803 328.763275,369.475311 
	C344.900269,370.026184 361.035797,370.619354 377.867493,371.438721 
	C379.088501,371.802399 379.614044,371.920837 380.139587,372.039246 
	C379.320862,373.014465 378.502136,373.989716 377.386963,375.104675 
z"/>
<path fill="#063F8F" opacity="1.000000" stroke="none" 
	d="
M340.830383,330.162476 
	C336.679382,319.323029 332.652863,308.848541 328.191498,297.242767 
	C335.663818,300.848541 342.142456,303.943542 348.577301,307.126953 
	C349.242310,307.455933 349.841461,308.228638 350.142609,308.935394 
	C353.767822,317.443970 357.330994,325.978943 361.364258,335.588379 
	C355.472412,335.588379 350.323730,335.993530 345.307526,335.355957 
	C343.678375,335.148926 342.395935,332.214386 340.830383,330.162476 
z"/>
<path fill="#083F8E" opacity="1.000000" stroke="none" 
	d="
M85.078491,304.868500 
	C83.116615,297.596344 81.169800,290.727661 79.470009,283.798370 
	C79.175713,282.598633 79.467339,280.686432 80.269279,279.877045 
	C86.347061,273.742767 92.593452,267.773895 98.862259,261.832550 
	C99.700180,261.038422 100.958710,260.688049 102.022461,260.132202 
	C102.488190,260.378479 102.953911,260.624756 103.419632,260.871033 
	C98.449913,277.819031 93.480186,294.767059 88.140862,312.975494 
	C86.873726,309.673004 86.025467,307.462219 85.078491,304.868500 
z"/>
<path fill="#0A3F8E" opacity="1.000000" stroke="none" 
	d="
M137.601898,317.575592 
	C140.276718,307.387299 142.825623,297.590729 145.374527,287.794159 
	C145.717056,287.669830 146.059586,287.545471 146.402100,287.421143 
	C147.000305,288.807190 148.151520,290.209015 148.112595,291.576935 
	C147.635696,308.337006 146.984451,325.092102 146.367523,342.147339 
	C141.030212,342.399750 136.267075,342.624969 130.984070,342.874786 
	C133.224731,334.278076 135.350357,326.122681 137.601898,317.575592 
z"/>
<path fill="#0D408D" opacity="1.000000" stroke="none" 
	d="
M183.059845,283.403320 
	C183.799103,283.428406 184.972122,283.740662 185.127121,284.323608 
	C190.030777,302.764771 194.835571,321.232269 199.817505,340.316895 
	C195.211151,340.316895 190.980118,340.316895 186.112320,340.316895 
	C185.826584,335.011749 185.451141,329.275696 185.222488,323.533813 
	C184.772018,312.221710 184.439117,300.904816 183.965454,289.593811 
	C183.884430,287.658295 183.346085,285.741913 183.059845,283.403320 
z"/>
<path fill="#0A3F8E" opacity="1.000000" stroke="none" 
	d="
M369.515137,334.796600 
	C368.016785,334.026154 366.438171,333.470062 365.967621,332.418213 
	C362.932343,325.633301 360.139191,318.740051 356.920380,311.055878 
	C364.387268,314.261108 371.362549,316.774109 377.794434,320.283173 
	C379.978851,321.474945 380.858337,325.144989 382.210602,327.746765 
	C383.193726,329.638306 383.973785,331.635345 385.378479,334.781677 
	C379.766602,334.781677 374.856934,334.781677 369.515137,334.796600 
z"/>
<path fill="#09408D" opacity="1.000000" stroke="none" 
	d="
M121.945129,367.058777 
	C120.477394,365.779419 119.009651,364.500031 116.927010,362.684692 
	C126.902863,362.684692 135.684769,362.684692 145.048386,362.684692 
	C144.428604,371.073212 143.860611,378.760712 143.218765,387.447906 
	C140.143539,384.808868 137.705933,382.717010 135.180115,380.221069 
	C135.091904,379.816986 134.932281,379.622375 134.932281,379.622375 
	C134.932281,379.622375 134.623932,379.823029 134.623932,379.823029 
	C134.623932,379.823029 134.399231,379.818542 134.351959,379.406494 
	C133.821793,378.690216 133.338898,378.385956 132.856003,378.081696 
	C132.856003,378.081696 132.962997,378.053284 132.811768,377.886047 
	C132.377579,377.489319 132.094650,377.259796 131.811722,377.030243 
	C131.811722,377.030243 131.976120,377.024384 131.811096,376.879883 
	C131.351730,376.506561 131.057388,376.277771 130.763046,376.048950 
	C130.763046,376.048950 130.953369,376.045624 130.794800,375.902863 
	C130.335297,375.532990 130.034363,375.305878 129.733429,375.078796 
	C129.733429,375.078796 129.934952,375.068420 129.781403,374.925690 
	C129.327469,374.549103 129.027084,374.315277 128.726685,374.081421 
	C128.726685,374.081421 128.933426,374.070221 128.779694,373.929504 
	C128.327225,373.550934 128.028488,373.313080 127.729767,373.075226 
	C127.729774,373.075226 127.936188,373.066803 127.781403,372.926208 
	C127.327614,372.548920 127.028610,372.312195 126.729607,372.075470 
	C126.729607,372.075470 126.934967,372.067627 126.782928,371.925964 
	C126.336327,371.544434 126.041763,371.304596 125.747208,371.064728 
	C125.747208,371.064728 125.942932,371.059235 125.793152,370.915588 
	C125.355988,370.531647 125.068604,370.291382 124.781219,370.051117 
	C124.781219,370.051117 124.960266,370.044250 124.811218,369.900360 
	C124.390282,369.510376 124.118385,369.264252 123.846497,369.018127 
	C123.846504,369.018127 123.988083,369.015015 123.833176,368.867615 
	C123.414970,368.481689 123.151680,368.243134 122.888397,368.004578 
	C122.888397,368.004578 122.967094,368.025055 122.944870,367.856812 
	C122.596817,367.478638 122.270973,367.268707 121.945129,367.058777 
z"/>
<path fill="#033F8E" opacity="1.000000" stroke="none" 
	d="
M170.861938,310.007721 
	C170.909286,319.691864 170.956635,329.376007 170.513763,339.523071 
	C166.120651,340.533325 164.787064,338.827332 164.936813,334.952057 
	C165.184631,328.538879 165.284119,322.092773 164.910370,315.691833 
	C164.635452,310.983643 166.424408,309.337250 170.861938,310.007721 
z"/>
<path fill="#053F8E" opacity="1.000000" stroke="none" 
	d="
M170.985962,285.056274 
	C170.985977,289.495331 170.985977,293.446838 170.985977,297.343628 
	C163.487961,298.809113 163.009354,298.440216 163.006470,291.443970 
	C163.005447,288.958405 163.005920,286.472839 163.006378,283.987274 
	C163.007706,276.636047 163.007828,276.636047 170.985962,277.318115 
	C170.985962,279.698181 170.985962,282.133423 170.985962,285.056274 
z"/>
<path fill="#0C3E8F" opacity="1.000000" stroke="none" 
	d="
M163.532562,262.587128 
	C163.532715,257.022064 163.532715,251.915604 163.532715,246.492203 
	C166.032394,246.492203 168.228882,246.492203 170.723831,246.492203 
	C170.723831,253.042053 170.723831,259.575592 170.723831,266.620850 
	C168.087753,265.600311 163.431396,269.875275 163.532562,262.587128 
z"/>
<path fill="#1F3F8F" opacity="1.000000" stroke="none" 
	d="
M278.095276,268.615723 
	C277.475403,268.890137 276.654541,268.890137 275.150116,268.890137 
	C276.304138,272.445526 277.380707,275.837708 278.505157,279.213959 
	C284.380981,296.856628 290.280670,314.491364 296.123352,332.145020 
	C296.473297,333.202423 296.400726,334.399628 296.369324,335.912109 
	C288.254028,312.787720 280.294098,289.283020 271.926758,264.575195 
	C274.525604,266.215332 276.209961,267.278320 278.095276,268.615723 
z"/>
<path fill="#163F8E" opacity="1.000000" stroke="none" 
	d="
M392.641663,333.998901 
	C391.768677,333.820862 391.098816,333.752869 390.932709,333.427582 
	C389.438171,330.501160 388.032074,327.529541 386.104401,323.547241 
	C394.433014,326.731323 401.846161,329.565430 409.259308,332.399506 
	C409.231812,332.929565 409.204346,333.459595 409.176849,333.989624 
	C403.810699,333.989624 398.444550,333.989624 392.641663,333.998901 
z"/>
<path fill="#26428D" opacity="1.000000" stroke="none" 
	d="
M230.375610,424.101898 
	C231.257767,423.671356 232.570099,422.995728 233.788086,423.136444 
	C249.734085,424.979126 265.622772,424.393677 281.491699,422.277985 
	C281.784546,422.238953 282.114441,422.477478 282.737366,422.801849 
	C265.691101,426.512085 248.253571,426.535126 230.375610,424.101898 
z"/>
<path fill="#072E9D" opacity="1.000000" stroke="none" 
	d="
M170.907196,309.618561 
	C166.424408,309.337250 164.635452,310.983643 164.910370,315.691833 
	C165.284119,322.092773 165.184631,328.538879 164.936813,334.952057 
	C164.787064,338.827332 166.120651,340.533325 170.445465,339.986511 
	C168.557785,340.461517 166.248215,340.935974 163.648605,340.721527 
	C163.486313,329.380035 163.614059,318.727417 163.741806,308.074829 
	C166.145355,308.459686 168.548920,308.844543 170.907196,309.618561 
z"/>
<path fill="#0C3D90" opacity="1.000000" stroke="none" 
	d="
M170.932648,213.654572 
	C168.672424,214.467194 166.485992,214.824921 163.881744,215.251007 
	C163.881744,211.290115 163.881744,207.929001 163.881744,204.267975 
	C166.102432,204.267975 168.311127,204.267975 171.006409,204.267975 
	C171.006409,207.317093 171.006409,210.258377 170.932648,213.654572 
z"/>
<path fill="#0C3D90" opacity="1.000000" stroke="none" 
	d="
M170.993744,231.911499 
	C171.276382,238.835648 166.605499,234.902145 163.851715,236.252701 
	C163.851715,232.291367 163.851715,228.937149 163.851715,225.325516 
	C166.072662,225.325516 168.159164,225.325516 170.993698,225.325516 
	C170.993698,227.318329 170.993698,229.380569 170.993744,231.911499 
z"/>
<path fill="#123E8F" opacity="1.000000" stroke="none" 
	d="
M167.158035,193.856903 
	C160.852890,193.978943 164.697754,189.713364 163.228912,187.259384 
	C166.080063,187.259384 168.292526,187.259384 171.059326,187.259384 
	C169.965576,189.719925 173.764069,194.028030 167.158035,193.856903 
z"/>
<path fill="#1F3F8F" opacity="1.000000" stroke="none" 
	d="
M301.714447,304.660950 
	C300.726624,303.407959 299.371979,301.911926 298.723083,300.155212 
	C295.912506,292.545837 293.308105,284.860382 290.674316,276.827606 
	C291.679657,278.104431 292.902710,279.659180 293.553528,281.424835 
	C296.351501,289.015411 298.981323,296.667999 301.714447,304.660950 
z"/>
<path fill="#FFD100" opacity="1.000000" stroke="none" 
	d="
M162.948959,364.392883 
	C163.278091,376.067047 163.312439,388.028046 163.296265,400.448303 
	C162.890228,400.366302 162.220840,399.822327 162.225388,399.284088 
	C162.322876,387.748901 162.495850,376.214325 162.948959,364.392883 
z"/>
<path fill="#FFD100" opacity="1.000000" stroke="none" 
	d="
M163.378082,308.319031 
	C163.614059,318.727417 163.486313,329.380035 163.271530,340.491241 
	C162.791672,339.748077 162.072205,338.550049 162.058456,337.343933 
	C161.961182,328.807068 161.973846,320.268250 162.054260,311.731018 
	C162.064240,310.672150 162.679535,309.618988 163.378082,308.319031 
z"/>
<path fill="#1A3A93" opacity="1.000000" stroke="none" 
	d="
M140.131500,211.690262 
	C139.325577,210.954758 138.697372,209.889221 137.826172,208.536957 
	C139.083893,205.544678 140.584610,202.839111 142.085342,200.133560 
	C142.512299,200.268234 142.939255,200.402908 143.366211,200.537598 
	C142.347229,204.145142 141.328232,207.752686 140.131500,211.690262 
z"/>
<path fill="#1A3A93" opacity="1.000000" stroke="none" 
	d="
M115.233437,241.857635 
	C114.604836,244.662155 113.720779,247.710388 112.515762,250.884491 
	C113.122528,248.040680 114.050262,245.071014 115.233437,241.857635 
z"/>
<path fill="#033B92" opacity="1.000000" stroke="none" 
	d="
M179.946976,368.659424 
	C181.567886,368.931213 183.466766,369.418610 185.486572,370.254517 
	C183.813324,370.026978 182.019135,369.450989 179.946976,368.659424 
z"/>
<path fill="#1F3F8F" opacity="1.000000" stroke="none" 
	d="
M282.190033,271.145874 
	C281.308685,270.858490 280.223999,270.363464 279.052124,269.539124 
	C279.972198,269.785950 280.979462,270.362091 282.190033,271.145874 
z"/>
<path fill="#1F3F8F" opacity="1.000000" stroke="none" 
	d="
M290.177734,276.063660 
	C289.441895,275.903442 288.499634,275.544891 287.518311,274.836182 
	C288.309937,274.945770 289.140656,275.405548 290.177734,276.063660 
z"/>
<path fill="#1A3A93" opacity="1.000000" stroke="none" 
	d="
M134.097626,213.831039 
	C133.925354,214.566864 133.564606,215.523636 132.850601,216.532715 
	C132.967941,215.740677 133.438538,214.896332 134.097626,213.831039 
z"/>
<path fill="#02408D" opacity="1.000000" stroke="none" 
	d="
M380.329895,371.859436 
	C379.614044,371.920837 379.088501,371.802399 378.332092,371.544067 
	C378.907593,371.495972 379.713898,371.587799 380.329895,371.859436 
z"/>
<path fill="#1A3A93" opacity="1.000000" stroke="none" 
	d="
M116.680664,239.946793 
	C116.656563,240.336548 116.378128,240.882538 115.794189,241.525772 
	C115.801224,241.116348 116.113770,240.609680 116.680664,239.946793 
z"/>
<path fill="#1A3A93" opacity="1.000000" stroke="none" 
	d="
M126.493774,225.858459 
	C126.503990,226.256332 126.272118,226.787369 125.738815,227.375885 
	C125.708809,226.952789 125.980240,226.472214 126.493774,225.858459 
z"/>
<path fill="#082D9F" opacity="1.000000" stroke="none" 
	d="
M122.025360,367.304138 
	C122.270973,367.268707 122.596817,367.478638 122.933075,367.895721 
	C122.664200,367.918427 122.384895,367.733978 122.025360,367.304138 
z"/>
<path fill="#1A3A93" opacity="1.000000" stroke="none" 
	d="
M122.470413,231.822510 
	C122.477783,232.211334 122.253914,232.718521 121.734680,233.250992 
	C121.705940,232.831146 121.972549,232.386017 122.470413,231.822510 
z"/>
<path fill="#1A3A93" opacity="1.000000" stroke="none" 
	d="
M136.550232,209.932114 
	C136.578491,210.338364 136.352112,210.902908 135.833130,211.593979 
	C135.792221,211.177139 136.043900,210.633774 136.550232,209.932114 
z"/>
<path fill="#1A3A93" opacity="1.000000" stroke="none" 
	d="
M135.374969,211.807343 
	C135.403122,212.191299 135.214584,212.726624 134.726181,213.312134 
	C134.670303,212.894455 134.914291,212.426575 135.374969,211.807343 
z"/>
<path fill="#033B92" opacity="1.000000" stroke="none" 
	d="
M373.288635,378.960205 
	C373.256775,378.709808 373.473633,378.383179 373.895538,378.047424 
	C373.912842,378.320190 373.725098,378.602081 373.288635,378.960205 
z"/>
<path fill="#1A3A93" opacity="1.000000" stroke="none" 
	d="
M131.601669,217.972015 
	C131.620163,218.372330 131.383423,218.930817 130.858139,219.620483 
	C130.828537,219.211166 131.087494,218.670670 131.601669,217.972015 
z"/>
<path fill="#1A3A93" opacity="1.000000" stroke="none" 
	d="
M119.600403,235.940674 
	C119.589149,236.335419 119.325508,236.862015 118.759399,237.458481 
	C118.753967,237.043091 119.050987,236.557816 119.600403,235.940674 
z"/>
<path fill="#1A3A93" opacity="1.000000" stroke="none" 
	d="
M124.491547,228.853760 
	C124.500572,229.250000 124.269287,229.777298 123.736847,230.356873 
	C123.707527,229.934357 123.979378,229.459579 124.491547,228.853760 
z"/>
<path fill="#1A3A93" opacity="1.000000" stroke="none" 
	d="
M130.408356,219.811646 
	C130.432098,220.201935 130.229507,220.731125 129.727203,221.306152 
	C129.678970,220.884811 129.930496,220.417679 130.408356,219.811646 
z"/>
<path fill="#1A3A93" opacity="1.000000" stroke="none" 
	d="
M128.474457,222.851944 
	C128.488174,223.247421 128.263992,223.782150 127.737946,224.375732 
	C127.702919,223.953461 127.969749,223.472321 128.474457,222.851944 
z"/>
<path fill="#082D9F" opacity="1.000000" stroke="none" 
	d="
M132.953796,378.335114 
	C133.338898,378.385956 133.821793,378.690216 134.315094,379.300354 
	C133.900848,379.266998 133.476212,378.927765 132.953796,378.335114 
z"/>
<path fill="#1F3F8F" opacity="1.000000" stroke="none" 
	d="
M286.039642,273.568970 
	C285.641174,273.599701 285.080078,273.380341 284.383850,272.876465 
	C284.791443,272.834259 285.334259,273.076599 286.039642,273.568970 
z"/>
<path fill="#1F3F8F" opacity="1.000000" stroke="none" 
	d="
M284.159790,272.408508 
	C283.768066,272.439270 283.228333,272.241882 282.622070,271.746216 
	C283.040955,271.692078 283.526367,271.936218 284.159790,272.408508 
z"/>
<path fill="#1F3F8F" opacity="1.000000" stroke="none" 
	d="
M296.957977,336.969177 
	C297.035431,336.661041 297.322083,336.620880 297.820374,336.839783 
	C298.012024,336.956116 297.598511,337.143158 297.598511,337.143158 
	C297.598511,337.143158 297.147247,337.094513 296.957977,336.969177 
z"/>
<path fill="#082D9F" opacity="1.000000" stroke="none" 
	d="
M126.840431,372.354218 
	C127.028610,372.312195 127.327614,372.548920 127.782005,373.029510 
	C127.608681,373.059906 127.279968,372.846436 126.840431,372.354218 
z"/>
<path fill="#033B92" opacity="1.000000" stroke="none" 
	d="
M185.756729,370.675720 
	C185.910019,370.573822 186.276138,370.660980 186.857239,370.938599 
	C186.704666,371.040955 186.337112,370.952850 185.756729,370.675720 
z"/>
<path fill="#082D9F" opacity="1.000000" stroke="none" 
	d="
M125.854507,371.343933 
	C126.041763,371.304596 126.336327,371.544434 126.783188,372.028687 
	C126.610916,372.056488 126.286369,371.839844 125.854507,371.343933 
z"/>
<path fill="#082D9F" opacity="1.000000" stroke="none" 
	d="
M127.840485,373.354248 
	C128.028488,373.313080 128.327225,373.550934 128.781494,374.033020 
	C128.608414,374.062592 128.279800,373.847961 127.840485,373.354248 
z"/>
<path fill="#082D9F" opacity="1.000000" stroke="none" 
	d="
M128.837296,374.359619 
	C129.027084,374.315277 129.327469,374.549103 129.782913,375.026581 
	C129.607941,375.059418 129.277924,374.848633 128.837296,374.359619 
z"/>
<path fill="#082D9F" opacity="1.000000" stroke="none" 
	d="
M129.844803,375.355225 
	C130.034363,375.305878 130.335297,375.532990 130.793884,375.998047 
	C130.619751,376.034546 130.287964,375.833099 129.844803,375.355225 
z"/>
<path fill="#082D9F" opacity="1.000000" stroke="none" 
	d="
M130.875870,376.321838 
	C131.057388,376.277771 131.351730,376.506561 131.812683,376.962097 
	C131.649094,376.990814 131.318893,376.792786 130.875870,376.321838 
z"/>
<path fill="#033B92" opacity="1.000000" stroke="none" 
	d="
M375.328827,377.072021 
	C375.298004,376.894165 375.530853,376.621582 376.000397,376.217896 
	C376.022217,376.383606 375.807373,376.680450 375.328827,377.072021 
z"/>
<path fill="#082D9F" opacity="1.000000" stroke="none" 
	d="
M131.913956,377.301636 
	C132.094650,377.259796 132.377579,377.489319 132.823517,377.940125 
	C132.663071,377.965332 132.339630,377.769196 131.913956,377.301636 
z"/>
<path fill="#082D9F" opacity="1.000000" stroke="none" 
	d="
M134.676178,379.927307 
	C134.623932,379.823029 134.932281,379.622375 134.932281,379.622375 
	C134.932281,379.622375 135.091904,379.816986 135.026779,379.923462 
	C134.961655,380.029968 134.728409,380.031586 134.676178,379.927307 
z"/>
<path fill="#082D9F" opacity="1.000000" stroke="none" 
	d="
M124.879524,370.330780 
	C125.068604,370.291382 125.355988,370.531647 125.792694,371.013489 
	C125.620621,371.040161 125.299225,370.825287 124.879524,370.330780 
z"/>
<path fill="#082D9F" opacity="1.000000" stroke="none" 
	d="
M123.934341,369.296570 
	C124.118385,369.264252 124.390282,369.510376 124.812309,369.989929 
	C124.649025,370.007294 124.335609,369.791168 123.934341,369.296570 
z"/>
<path fill="#082D9F" opacity="1.000000" stroke="none" 
	d="
M122.978348,368.273560 
	C123.151680,368.243134 123.414970,368.481689 123.833977,368.938416 
	C123.682564,368.951935 123.375435,368.747253 122.978348,368.273560 
z"/>
<path fill="#02408D" opacity="1.000000" stroke="none" 
	d="
M237.726837,366.324402 
	C237.945847,366.413544 237.612091,366.584839 237.612091,366.584839 
	C237.612091,366.584839 237.247787,366.531189 237.150604,366.448730 
	C237.053421,366.366272 237.507828,366.235260 237.726837,366.324402 
z"/>
<path fill="#1A3A93" opacity="1.000000" stroke="none" 
	d="
M137.154083,208.785431 
	C137.257263,208.931061 137.194824,209.253021 136.929596,209.730347 
	C136.726700,209.552994 136.813919,209.245010 137.154083,208.785431 
z"/>
<path fill="#1A3A93" opacity="1.000000" stroke="none" 
	d="
M121.055023,233.778992 
	C121.330284,233.976334 121.256866,234.259476 120.780075,234.582718 
	C120.583534,234.379349 120.693413,234.126663 121.055023,233.778992 
z"/>
<path fill="#1A3A93" opacity="1.000000" stroke="none" 
	d="
M132.321014,216.742035 
	C132.422989,216.909668 132.317108,217.246979 131.999084,217.753265 
	C131.895691,217.585388 132.004425,217.248550 132.321014,216.742035 
z"/>
<path fill="#1A3A93" opacity="1.000000" stroke="none" 
	d="
M129.112030,221.779053 
	C129.383301,221.967270 129.313263,222.275558 128.855621,222.672241 
	C128.652145,222.481018 128.753036,222.193848 129.112030,221.779053 
z"/>
<path fill="#1A3A93" opacity="1.000000" stroke="none" 
	d="
M127.176529,224.751678 
	C127.268166,224.905136 127.183243,225.224167 126.879791,225.679718 
	C126.689270,225.484589 126.802170,225.184937 127.176529,224.751678 
z"/>
<path fill="#1F3F8F" opacity="1.000000" stroke="none" 
	d="
M287.240051,274.254181 
	C287.078003,274.359924 286.750946,274.269470 286.266296,273.970154 
	C286.430817,273.860199 286.752960,273.959106 287.240051,274.254181 
z"/>
<path fill="#1A3A93" opacity="1.000000" stroke="none" 
	d="
M125.174355,227.749176 
	C125.267128,227.903839 125.181534,228.223114 124.876953,228.678558 
	C124.682587,228.481400 124.795250,228.181076 125.174355,227.749176 
z"/>
<path fill="#1A3A93" opacity="1.000000" stroke="none" 
	d="
M123.158630,230.750244 
	C123.247658,230.903564 123.161194,231.217682 122.854149,231.659515 
	C122.663841,231.460785 122.780365,231.168716 123.158630,230.750244 
z"/>
<path fill="#1A3A93" opacity="1.000000" stroke="none" 
	d="
M118.288727,237.689850 
	C118.357498,237.868073 118.198982,238.228790 117.779739,238.744537 
	C117.699821,238.557159 117.880630,238.214767 118.288727,237.689850 
z"/>
<path fill="#1A3A93" opacity="1.000000" stroke="none" 
	d="
M120.406647,234.754135 
	C120.499512,234.935638 120.359680,235.265335 119.998947,235.756958 
	C119.910019,235.580032 120.041985,235.241180 120.406647,234.754135 
z"/>
</svg>